<svg xmlns="http://www.w3.org/2000/svg" width="40" height="40" viewBox="0 -0.5 16 16" shape-rendering="crispEdges">
<path stroke="#316364" d="M7 2h1M5 3h1M11 4h1M12 5h1M3 7h1M13 7h1M3 8h1M13 8h1M3 9h1M13 9h1M12 11h1M5 12h1M11 12h1M7 13h1M9 13h1" />
<path stroke="#1e4835" d="M8 2h1M11 3h1M12 4h1M3 5h1M13 5h1M3 6h1M8 6h1M2 7h1M2 8h1M7 8h1M9 8h1M2 9h1M7 9h1M9 9h1M3 10h1M8 10h1M3 11h1" />
<path stroke="#1e4935" d="M9 2h1M10 3h1M9 7h1" />
<path stroke="#316365" d="M6 3h1" />
<path stroke="#4e8386" d="M7 3h1M9 3h1M5 4h1M4 5h1M4 10h1M11 10h1M5 11h1M10 11h1M6 12h4" />
<path stroke="#4e8186" d="M8 3h1" />
<path stroke="#306364" d="M4 4h1M4 11h1" />
<path stroke="#659a7d" d="M6 4h1" />
<path stroke="#659b7d" d="M7 4h3M5 5h1M10 5h2M4 6h1M11 6h2M4 7h1M12 7h1M4 9h1M5 10h1M6 11h1M10 12h1" />
<path stroke="#659b7f" d="M10 4h1" />
<path stroke="#cbfcdf" d="M6 5h1" />
<path stroke="#b5e45a" d="M7 5h1M6 6h1M5 7h1" />
<path stroke="#88c35a" d="M8 5h1M6 8h1M10 9h1M7 10h1" />
<path stroke="#72ad49" d="M9 5h1" />
<path stroke="#cbfcdd" d="M5 6h1" />
<path stroke="#97d06b" d="M7 6h1" />
<path stroke="#579043" d="M9 6h1" />
<path stroke="#71ac49" d="M10 6h1M11 7h1M4 8h2M11 9h1M10 10h1M7 11h1M9 11h1" />
<path stroke="#102d31" d="M13 6h1" />
<path stroke="#97d16b" d="M6 7h1M9 10h1" />
<path stroke="#1e4834" d="M7 7h1" />
<path stroke="#1b2b10" d="M8 7h1M8 9h1" />
<path stroke="#579143" d="M10 7h1M10 8h1M6 9h1M8 11h1" />
<path stroke="#102c31" d="M14 7h1M14 8h1M14 9h1M13 10h1M4 12h1M12 12h1M5 13h2M11 13h1M7 14h3" />
<path stroke="#192b10" d="M8 8h1" />
<path stroke="#71ac4b" d="M11 8h1M6 10h1" />
<path stroke="#659b7c" d="M12 8h1" />
<path stroke="#71ad49" d="M5 9h1" />
<path stroke="#73ac49" d="M12 9h1" />
<path stroke="#65997d" d="M12 10h1" />
<path stroke="#73ae49" d="M11 11h1" />
<path stroke="#102c30" d="M13 11h1" />
<path stroke="#316164" d="M8 13h1" />
<path stroke="#112c31" d="M10 13h1" />
</svg>