<svg xmlns="http://www.w3.org/2000/svg" xml:space="preserve" width="32" height="32">
    <rect x="12" y="16" width="2" height="14" fill="#542618" />
    <rect x="18" y="16" width="2" height="6" fill="#542618" />
    <rect x="18" y="22" width="6" height="2" fill="#542618" />
    <rect x="22" y="24" width="2" height="2" fill="#542618" />
    <rect x="18" y="26" width="4" height="2" fill="#542618" />
    <rect x="22" y="28" width="2" height="2" fill="#542618" />
    <rect x="12" y="30" width="12" height="2" fill="#542618" />
    <rect x="14" y="12" width="4" height="18" fill="#c25c38" />
    <rect x="18" y="24" width="4" height="2" fill="#c25c38" />
    <rect x="18" y="28" width="4" height="2" fill="#c25c38" />
    <rect x="10" y="0" width="12" height="2" fill="#282828" />
    <rect x="8" y="2" width="2" height="8" fill="#282828" />
    <rect x="22" y="2" width="2" height="8" fill="#282828" />
    <rect x="10" y="10" width="2" height="6" fill="#282828" />
    <rect x="20" y="10" width="2" height="6" fill="#282828" />
    <rect x="12" y="14" width="2" height="2" fill="#282828" />
    <rect x="18" y="14" width="2" height="2" fill="#282828" />
    <rect x="14" y="10" width="4" height="2" fill="#282828" />
    <rect x="10" y="2" width="12" height="8" fill="#4f584f" />
    <rect x="12" y="10" width="2" height="4" fill="#4f584f" />
    <rect x="18" y="10" width="2" height="4" fill="#4f584f" />
    <rect x="12" y="6" width="2" height="2" fill="#fe9d55" />
    <rect x="18" y="6" width="2" height="2" fill="#fe9d55" />
</svg>